<svg width="234" height="184" viewBox="0 0 234 184" fill="none" xmlns="http://www.w3.org/2000/svg">
  <path d="M222 155.5
           C 160 150, 96 151, 33 152
           C 0 152.5, -6 130, 22 113
           C 52 96, 87 94, 116 76
           C 146 43, 70 29, 50 18
           C 37 22, 29 -1, 46 0
           C 73 11, 103 18, 126 36
           C 144 51, 143 79, 123 91
           C 91 112, 47 110, 17 135
           C 41 140, 66 136, 91 137
           C 135 137, 179 138, 222 142"
        stroke="white" stroke-width="3" stroke-linecap="round" stroke-linejoin="round" fill="none"/>
  <path d="M195 113
           C 205 122, 220 128, 230 138
           C 237 150, 226 160, 219 167
           C 211 173, 203 189, 193 180
           C 184 168, 211 156, 217 146"
        stroke="white" stroke-width="3" stroke-linecap="round" stroke-linejoin="round" fill="none"/>
</svg>
