<svg width="322" height="26" viewBox="0 0 322 26" fill="none" xmlns="http://www.w3.org/2000/svg">
<path d="M18.216 18.2163C18.216 9.36028 5.328 12.1683 5.328 7.12828C5.328 5.07628 6.804 4.10428 8.784 4.17628C10.944 4.21228 12.276 5.50828 12.384 7.16428H17.928C17.604 2.62828 14.076 0.000281096 8.928 0.000281096C3.744 0.000281096 0.0720016 2.73628 0.0720016 7.27228C0.0360015 16.3803 12.996 13.1043 12.996 18.5403C12.996 20.3403 11.592 21.6003 9.216 21.6003C6.876 21.6003 5.544 20.2683 5.4 18.2523H1.56462e-06C0.0720016 23.0043 4.104 25.7403 9.324 25.7403C15.048 25.7403 18.216 22.1763 18.216 18.2163ZM21.3615 12.8883C21.3615 20.4123 26.8695 25.7043 34.1055 25.7043C39.6855 25.7043 44.2215 22.7523 45.9135 17.5683H40.1175C38.9295 20.0163 36.7695 21.2043 34.0695 21.2043C29.6775 21.2043 26.5455 17.9643 26.5455 12.8883C26.5455 7.77628 29.6775 4.57228 34.0695 4.57228C36.7695 4.57228 38.9295 5.76028 40.1175 8.17228H45.9135C44.2215 3.02428 39.6855 0.0362806 34.1055 0.0362806C26.8695 0.0362806 21.3615 5.36428 21.3615 12.8883ZM63.5383 8.17228C63.5383 10.4403 62.2783 11.9163 59.4703 11.9163H55.2583V4.53628H59.4703C62.2783 4.53628 63.5383 5.94028 63.5383 8.17228ZM50.2183 0.360281V25.4883H55.2583V15.6963H57.6343L63.1783 25.4883H69.0103L62.9983 15.3003C67.0303 14.2203 68.7223 11.1243 68.7223 8.06428C68.7223 3.85228 65.6983 0.360281 59.6503 0.360281H50.2183ZM87.8608 0.324279H73.2808V25.4883H87.8608V21.3843H78.3208V14.7243H86.7808V10.7283H78.3208V4.42828H87.8608V0.324279ZM107.021 0.324279H92.441V25.4883H107.021V21.3843H97.481V14.7243H105.941V10.7283H97.481V4.42828H107.021V0.324279ZM128.053 0.324279V17.6043L116.641 0.324279H111.601V25.4883H116.641V8.24428L128.053 25.4883H133.093V0.324279H128.053ZM155.642 18.2163C155.642 9.36028 142.754 12.1683 142.754 7.12828C142.754 5.07628 144.23 4.10428 146.21 4.17628C148.37 4.21228 149.702 5.50828 149.81 7.16428H155.354C155.03 2.62828 151.502 0.000281096 146.354 0.000281096C141.17 0.000281096 137.498 2.73628 137.498 7.27228C137.462 16.3803 150.422 13.1043 150.422 18.5403C150.422 20.3403 149.018 21.6003 146.642 21.6003C144.302 21.6003 142.97 20.2683 142.826 18.2523H137.426C137.498 23.0043 141.53 25.7403 146.75 25.7403C152.474 25.7403 155.642 22.1763 155.642 18.2163ZM173.629 11.7723V4.46428H177.625C180.469 4.46428 181.729 5.83228 181.729 8.13628C181.729 10.3683 180.469 11.7723 177.625 11.7723H173.629ZM186.913 8.13628C186.913 3.78028 183.889 0.360281 177.841 0.360281H168.589V25.4883H173.629V15.8403H177.841C184.321 15.8403 186.913 11.9523 186.913 8.13628ZM203.812 8.17228C203.812 10.4403 202.552 11.9163 199.744 11.9163H195.532V4.53628H199.744C202.552 4.53628 203.812 5.94028 203.812 8.17228ZM190.492 0.360281V25.4883H195.532V15.6963H197.908L203.452 25.4883H209.284L203.272 15.3003C207.304 14.2203 208.996 11.1243 208.996 8.06428C208.996 3.85228 205.972 0.360281 199.924 0.360281H190.492ZM228.134 0.324279H213.554V25.4883H228.134V21.3843H218.594V14.7243H227.054V10.7283H218.594V4.42828H228.134V0.324279ZM243.046 20.3403L236.134 0.360281H230.734L239.95 25.4883H246.07L255.286 0.360281H249.922L243.046 20.3403ZM258.308 25.4883H263.348V0.360281H258.308V25.4883ZM282.908 0.324279H268.328V25.4883H282.908V21.3843H273.368V14.7243H281.828V10.7283H273.368V4.42828H282.908V0.324279ZM292.564 25.5243L298.468 25.4883L303.4 7.59628L308.116 25.4883H314.056L321.076 0.360281H315.64L311.176 19.7643L306.352 0.360281H300.736L295.624 19.8723L291.196 0.360281H285.796L292.564 25.5243Z" fill="#0D223A"/>
</svg>
