<svg width="14" height="14" viewBox="0 0 14 14" fill="none" xmlns="http://www.w3.org/2000/svg">
<circle cx="7" cy="7" r="7" fill="#F97316" fill-opacity="0.2"/>
<path d="M7.16663 4.61987C7.70597 4.61987 8.14319 4.18265 8.14319 3.64331C8.14319 3.10397 7.70597 2.66675 7.16663 2.66675C6.62729 2.66675 6.19006 3.10397 6.19006 3.64331C6.19006 4.18265 6.62729 4.61987 7.16663 4.61987Z" fill="#F97316"/>
<path d="M8.87634 6.34513C8.87634 5.4029 8.10959 4.61987 7.16736 4.61987C6.22512 4.61987 5.45837 5.4029 5.45837 6.34513V7.07756H8.87634V6.34513Z" fill="#F97316"/>
<path d="M10.3189 6.37786C10.184 8.48913 9.27846 8.98035 9.22968 9.00475L9.00699 8.57012C9.01492 8.56577 9.51915 8.26235 9.74439 7.08638C8.58622 7.18291 7.63826 8.08771 7.49923 9.26678C7.44106 9.76198 7.41165 10.2737 7.41165 10.7558L7.4115 10.9999H9.36462V10.7558C9.36462 10.5207 9.53915 10.3586 9.87364 10.0689C10.4487 9.57108 11.334 8.80212 11.334 6.83325V5.61255C11.334 5.61255 11.0844 5.61255 11.0817 5.61258C10.6769 5.61532 10.3447 5.97393 10.3189 6.37786V6.37786Z" fill="#F97316"/>
<path d="M4.46038 10.0689C4.79487 10.3586 4.9694 10.5207 4.9694 10.7558V10.9999H6.92253V10.7558C6.92253 10.2737 6.89297 9.76198 6.83478 9.2668C6.69575 8.08773 5.7478 7.18293 4.58962 7.08639C4.81486 8.26237 5.31909 8.56579 5.32702 8.57013L5.10433 9.00477C5.05555 8.98035 4.14997 8.48913 4.01509 6.37788C3.98927 5.97394 3.6571 5.61533 3.25236 5.61258C3.24963 5.61255 3 5.61255 3 5.61255V6.83325C3 8.80212 3.88532 9.57108 4.46038 10.0689V10.0689Z" fill="#F97316"/>
</svg>
