<svg width="17" height="17" viewBox="0 0 17 17" fill="none" xmlns="http://www.w3.org/2000/svg">
<g clip-path="url(#clip0_155_696)">
<path d="M10.6605 3.54183C11.3523 3.67681 11.9882 4.01518 12.4866 4.51362C12.985 5.01206 13.3234 5.64789 13.4584 6.33975M10.6605 0.708496C12.0979 0.86818 13.4383 1.51187 14.4616 2.53388C15.4849 3.55588 16.1302 4.89546 16.2917 6.33266M15.5834 11.9852V14.1102C15.5842 14.3074 15.5438 14.5027 15.4647 14.6834C15.3857 14.8642 15.2698 15.0265 15.1244 15.1598C14.9791 15.2932 14.8075 15.3947 14.6206 15.4579C14.4337 15.5211 14.2357 15.5446 14.0392 15.5268C11.8596 15.29 9.76585 14.5452 7.9263 13.3522C6.21485 12.2647 4.76383 10.8137 3.6763 9.10225C2.47921 7.25435 1.73423 5.15045 1.50172 2.961C1.48402 2.76512 1.5073 2.5677 1.57008 2.38131C1.63285 2.19493 1.73375 2.02365 1.86635 1.87839C1.99894 1.73314 2.16033 1.61708 2.34024 1.53762C2.52015 1.45815 2.71463 1.41701 2.9113 1.41683H5.0363C5.38006 1.41345 5.71332 1.53518 5.97397 1.75933C6.23461 1.98349 6.40486 2.29477 6.45297 2.63516C6.54266 3.31521 6.709 3.98293 6.94881 4.62558C7.04411 4.87911 7.06473 5.15464 7.00824 5.41954C6.95174 5.68443 6.8205 5.92757 6.63005 6.12016L5.73047 7.01975C6.73882 8.79309 8.20713 10.2614 9.98047 11.2697L10.8801 10.3702C11.0726 10.1797 11.3158 10.0485 11.5807 9.99198C11.8456 9.93549 12.1211 9.95611 12.3746 10.0514C13.0173 10.2912 13.685 10.4576 14.3651 10.5472C14.7091 10.5958 15.0234 10.7691 15.248 11.0342C15.4727 11.2993 15.592 11.6378 15.5834 11.9852Z" stroke="white" stroke-width="1.7" stroke-linecap="round" stroke-linejoin="round"/>
</g>
<defs>
<clipPath id="clip0_155_696">
<rect width="17" height="17" fill="white"/>
</clipPath>
</defs>
</svg>
