<svg width="170" height="50" viewBox="0 0 170 50" fill="none" xmlns="http://www.w3.org/2000/svg">
<g clip-path="url(#clip0_157_680)">
<path d="M53.2567 0H60.2634V34.9501H53.2567V32.5997C51.6024 34.6322 49.2785 35.6484 46.2851 35.6484C44.7873 35.6622 43.3048 35.3275 41.9405 34.6675C40.5762 34.0075 39.3629 33.0381 38.3851 31.8267C36.2775 29.2308 35.1173 25.9105 35.1173 22.4751C35.1173 19.0396 36.2775 15.7193 38.3851 13.1234C39.3629 11.912 40.5762 10.9426 41.9405 10.2826C43.3048 9.62263 44.7873 9.28791 46.2851 9.30175C49.2824 9.30175 51.6063 10.318 53.2567 12.3504V0ZM43.6692 26.8828C44.7714 27.946 46.2039 28.5347 47.6893 28.5347C49.1747 28.5347 50.6073 27.946 51.7094 26.8828C52.7079 25.6484 53.2574 24.0718 53.2574 22.4408C53.2574 20.8097 52.7079 19.2331 51.7094 17.9988C50.6055 16.9394 49.1736 16.3533 47.6893 16.3533C46.2051 16.3533 44.7732 16.9394 43.6692 17.9988C42.6741 19.2348 42.1269 20.8108 42.1269 22.4408C42.1269 24.0707 42.6741 25.6467 43.6692 26.8828V26.8828Z" fill="#001D7D"/>
<path d="M16.3258 0.074979C13.091 0.0688114 9.9273 1.08737 7.2349 3.00174C4.5425 4.91612 2.44247 7.64027 1.20058 10.8295C-0.0413022 14.0186 -0.369238 17.5295 0.258287 20.9178C0.885812 24.306 2.44059 27.4194 4.72585 29.8638C7.01112 32.3082 9.92416 33.9739 13.0963 34.65C16.2685 35.326 19.5572 34.9822 22.5463 33.6619C25.5354 32.3416 28.0904 30.1042 29.8882 27.2328C31.6859 24.3615 32.6455 20.9852 32.6455 17.5313C32.6455 12.907 30.927 8.47164 27.8673 5.19884C24.8076 1.92603 20.6567 0.0832367 16.3258 0.074979V0.074979ZM26.8358 6.93283L25.0841 13.8281C25.5265 15.0077 25.7524 16.267 25.7498 17.5376C25.7546 19.6882 25.1139 21.784 23.9217 23.5174C22.7295 25.2509 21.0485 26.5309 19.1252 27.1698C17.2019 27.8087 15.1375 27.7727 13.2347 27.0673C11.3319 26.3619 9.6909 25.0241 8.55223 23.25C7.41356 21.476 6.83718 19.3591 6.90762 17.2098C6.97806 15.0604 7.6916 12.9917 8.94362 11.307C10.1956 9.6223 11.9203 8.41023 13.8646 7.84855C15.8089 7.28686 17.8706 7.40511 19.7474 8.18595L26.2286 6.31563C26.3087 6.29368 26.3928 6.29429 26.4727 6.3174C26.5526 6.34052 26.6255 6.38535 26.6843 6.44753C26.7431 6.5097 26.7859 6.58708 26.8083 6.67214C26.8308 6.7572 26.8322 6.84702 26.8124 6.93283H26.8358Z" fill="#001D7D"/>
<path d="M16.3275 20.4925C17.8625 20.4925 19.1068 19.1639 19.1068 17.525C19.1068 15.886 17.8625 14.5574 16.3275 14.5574C14.7926 14.5574 13.5482 15.886 13.5482 17.525C13.5482 19.1639 14.7926 20.4925 16.3275 20.4925Z" fill="#001D7D"/>
</g>
<g clip-path="url(#clip1_157_680)">
<path d="M53.2567 0H60.2634V34.9501H53.2567V32.5997C51.6024 34.6322 49.2785 35.6484 46.2851 35.6484C44.7873 35.6622 43.3048 35.3275 41.9405 34.6675C40.5762 34.0075 39.3629 33.0381 38.3851 31.8267C36.2775 29.2308 35.1173 25.9105 35.1173 22.4751C35.1173 19.0396 36.2775 15.7193 38.3851 13.1234C39.3629 11.912 40.5762 10.9426 41.9405 10.2826C43.3048 9.62263 44.7873 9.28791 46.2851 9.30175C49.2824 9.30175 51.6063 10.318 53.2567 12.3504V0ZM43.6692 26.8828C44.7714 27.946 46.2039 28.5347 47.6893 28.5347C49.1747 28.5347 50.6073 27.946 51.7094 26.8828C52.7079 25.6484 53.2574 24.0718 53.2574 22.4408C53.2574 20.8097 52.7079 19.2331 51.7094 17.9988C50.6055 16.9394 49.1736 16.3533 47.6893 16.3533C46.2051 16.3533 44.7732 16.9394 43.6692 17.9988C42.6741 19.2348 42.1269 20.8108 42.1269 22.4408C42.1269 24.0707 42.6741 25.6467 43.6692 26.8828V26.8828Z" fill="#001D7D"/>
<path d="M70.0175 7.66205C69.3312 8.38831 68.4304 8.83829 67.4684 8.93544C66.5064 9.03259 65.5426 8.77093 64.7409 8.19495C63.9392 7.61897 63.3491 6.76424 63.071 5.77614C62.7929 4.78804 62.8439 3.72759 63.2154 2.77515C63.587 1.8227 64.256 1.03709 65.1088 0.551921C65.9616 0.0667512 66.9455 -0.088013 67.8931 0.113954C68.8407 0.31592 69.6935 0.862146 70.3065 1.65972C70.9195 2.4573 71.2548 3.45698 71.2554 4.48874C71.2631 5.07991 71.1572 5.6665 70.9443 6.21228C70.7314 6.75807 70.4159 7.25148 70.0175 7.66205V7.66205ZM62.8415 34.9501V10.0124H71.2554V34.9813L62.8415 34.9501Z" fill="#001D7D"/>
<path d="M92.0706 0H99.0773V34.9501H92.0706V32.5998C90.4163 34.6322 88.0924 35.6484 85.099 35.6484C83.6014 35.6614 82.119 35.3263 80.7548 34.6663C79.3907 34.0064 78.1773 33.0374 77.199 31.8267C75.0914 29.2308 73.9312 25.9105 73.9312 22.4751C73.9312 19.0396 75.0914 15.7193 77.199 13.1234C78.1773 11.9127 79.3907 10.9437 80.7548 10.2838C82.119 9.62385 83.6014 9.28875 85.099 9.30175C88.0963 9.30175 90.4202 10.318 92.0706 12.3504V0ZM82.4832 26.8828C83.5863 27.9465 85.0198 28.5353 86.5061 28.5353C87.9925 28.5353 89.426 27.9465 90.5291 26.8828C91.5243 25.6467 92.0715 24.0708 92.0715 22.4408C92.0715 20.8108 91.5243 19.2348 90.5291 17.9988C89.4242 16.9389 87.9914 16.3527 86.5061 16.3527C85.0209 16.3527 83.5881 16.9389 82.4832 17.9988C81.488 19.2348 80.9408 20.8108 80.9408 22.4408C80.9408 24.0708 81.488 25.6467 82.4832 26.8828V26.8828Z" fill="#001D7D"/>
<path d="M141.997 35.6482C140.353 35.6864 138.719 35.3737 137.19 34.7283C135.661 34.083 134.267 33.1181 133.092 31.8902C131.917 30.6623 130.983 29.1961 130.346 27.5777C129.708 25.9593 129.38 24.2213 129.38 22.4656C129.38 20.7099 129.708 18.9718 130.346 17.3534C130.983 15.7351 131.917 14.2689 133.092 13.041C134.267 11.8131 135.661 10.8482 137.19 10.2028C138.719 9.55749 140.353 9.24473 141.997 9.2829C144.174 9.2645 146.315 9.86946 148.198 11.0348C150.024 12.1261 151.539 13.7246 152.583 15.6607L146.458 19.4575C145.618 17.5913 144.105 16.6603 141.921 16.6645C141.22 16.6402 140.522 16.7718 139.87 17.0508C139.219 17.3298 138.629 17.7502 138.138 18.2854C137.174 19.4298 136.641 20.9143 136.641 22.4531C136.641 23.9919 137.174 25.4764 138.138 26.6208C138.629 27.1568 139.219 27.5781 139.87 27.8582C140.521 28.1383 141.22 28.271 141.921 28.248C144.132 28.248 145.645 27.3149 146.458 25.4487L152.583 29.1894C151.562 31.1468 150.06 32.7698 148.239 33.8839C146.346 35.0632 144.189 35.6729 141.997 35.6482Z" fill="#001D7D"/>
<path d="M119.795 9.98122H126.802V34.95H119.795V32.5997C118.14 34.6321 115.817 35.6483 112.823 35.6483C111.326 35.6613 109.843 35.3262 108.479 34.6663C107.115 34.0063 105.902 33.0374 104.923 31.8266C102.816 29.2307 101.655 25.9105 101.655 22.475C101.655 19.0395 102.816 15.7192 104.923 13.1234C105.9 11.9092 107.113 10.9367 108.477 10.2735C109.841 9.61029 111.324 9.27228 112.823 9.28296C115.817 9.28296 118.14 10.2992 119.795 12.3316V9.98122ZM110.207 26.8827C111.31 27.946 112.742 28.5346 114.227 28.5346C115.713 28.5346 117.145 27.946 118.248 26.8827C119.246 25.6484 119.795 24.0717 119.795 22.4407C119.795 20.8096 119.246 19.233 118.248 17.9987C117.144 16.9393 115.712 16.3532 114.227 16.3532C112.743 16.3532 111.311 16.9393 110.207 17.9987C109.212 19.2347 108.665 20.8107 108.665 22.4407C108.665 24.0707 109.212 25.6467 110.207 26.8827Z" fill="#001D7D"/>
<path d="M170.828 17.1757H166.011V26.0099C165.964 26.4162 166.05 26.8274 166.254 27.1739C166.458 27.5203 166.768 27.7809 167.132 27.9114C168.342 28.215 169.591 28.2993 170.828 28.1608V34.95C166.367 35.4488 163.28 34.9916 161.567 33.5785C159.855 32.1653 158.998 29.6425 158.998 26.0099V17.1757H155.256V9.98121H158.998V5.23682L166.005 2.99243V9.98121H170.822L170.828 17.1757Z" fill="#001D7D"/>
<path d="M16.3258 0.074979C13.091 0.0688114 9.9273 1.08737 7.2349 3.00174C4.5425 4.91612 2.44247 7.64027 1.20058 10.8295C-0.0413022 14.0186 -0.369238 17.5295 0.258287 20.9178C0.885812 24.306 2.44059 27.4194 4.72585 29.8638C7.01112 32.3082 9.92416 33.9739 13.0963 34.65C16.2685 35.326 19.5572 34.9822 22.5463 33.6619C25.5354 32.3416 28.0904 30.1042 29.8882 27.2328C31.6859 24.3615 32.6455 20.9852 32.6455 17.5313C32.6455 12.907 30.927 8.47164 27.8673 5.19884C24.8076 1.92603 20.6567 0.0832367 16.3258 0.074979V0.074979ZM26.8358 6.93283L25.0841 13.8281C25.5265 15.0077 25.7524 16.267 25.7498 17.5376C25.7546 19.6882 25.1139 21.784 23.9217 23.5174C22.7295 25.2509 21.0485 26.5309 19.1252 27.1698C17.2019 27.8087 15.1375 27.7727 13.2347 27.0673C11.3319 26.3619 9.6909 25.0241 8.55223 23.25C7.41356 21.476 6.83718 19.3591 6.90762 17.2098C6.97806 15.0604 7.6916 12.9917 8.94362 11.307C10.1956 9.6223 11.9203 8.41023 13.8646 7.84855C15.8089 7.28686 17.8706 7.40511 19.7474 8.18595L26.2286 6.31563C26.3087 6.29368 26.3928 6.29429 26.4727 6.3174C26.5526 6.34052 26.6255 6.38535 26.6843 6.44753C26.7431 6.5097 26.7859 6.58708 26.8083 6.67214C26.8308 6.7572 26.8322 6.84702 26.8124 6.93283H26.8358Z" fill="#001D7D"/>
<path d="M16.3275 20.4925C17.8625 20.4925 19.1068 19.1639 19.1068 17.525C19.1068 15.886 17.8625 14.5574 16.3275 14.5574C14.7926 14.5574 13.5482 15.886 13.5482 17.525C13.5482 19.1639 14.7926 20.4925 16.3275 20.4925Z" fill="#001D7D"/>
</g>
<defs>
<clipPath id="clip0_157_680">
<rect width="169.118" height="50" fill="white"/>
</clipPath>
<clipPath id="clip1_157_680">
<rect width="169.118" height="50" fill="white"/>
</clipPath>
</defs>
</svg>
