<svg width="104" height="104" viewBox="0 0 104 104" fill="none" xmlns="http://www.w3.org/2000/svg">
<g clip-path="url(#clip0_40_865)">
<path d="M79.8 103.4H23.6C10.6 103.4 0 92.8 0 79.8V23.6C0 10.6 10.6 0 23.6 0H79.8C92.8 0 103.4 10.6 103.4 23.6V79.8C103.4 92.8 92.8 103.4 79.8 103.4Z" fill="#17AA96"/>
<path d="M52.8 6.59999C52 6.69999 51.2 6.79999 50.4 6.79999C49.5 6.79999 48.6 6.59999 47.8 7.19999C46.6 8.09999 46.7 9.79999 46.8 11.2C44.7 11.2 42.7 11.3 40.6 11.3C39.2 11.3 36.7 10.8 35.5 11.7C33.4 13.1 33.7 17.3 33.6 19.8C33.3 19.8 32.9 19.8 32.6 19.8C27.3 20.3 26.4 23.2 26.4 28.3C26.4 33.9 28.3 35.4 33.9 35.8C38.3 36.1 42.7 36.2 47.1 36.3C47.5 41.7 46.9 47.4 47 52.8C47.1 57.4 47.1 62.1 47.3 66.8C42.9 66.9 38.6 67 34.3 67.3C28.8 67.7 26.8 69.1 26.8 74.8C26.8 78.7 27.2 82.8 31.7 83.3C32.5 83.4 33.3 83.5 34.1 83.5C34.1 86 33.9 89.8 35.7 91.2C38 93 44.1 92.2 46.9 92.2C47 92.2 47.1 92.2 47.2 92.2C47.1 93.3 47.1 94.7 47.5 95.6C48.2 97.3 51 96.6 52.4 96.6C53.9 96.6 56.2 97.1 56.6 95.3C56.8 94.4 56.9 93.4 56.8 92.4C60.2 92.4 63.7 92.2 66.7 91.4C70.5 90.4 70.5 86.8 70.5 83.3C71 83.3 71.5 83.3 72 83.2C76.8 82.8 77.1 80.2 77.2 75.9C77.2 73.2 78.2 69 75.5 67.4C73.9 66.5 71.1 66.7 69.3 66.6C65.5 66.5 61.6 66.5 57.8 66.5C57.5 66.5 57.2 66.5 56.9 66.5C56.8 56.4 57.3 46.3 56.7 36.2C60.1 36.2 63.5 36.2 67 36.2C69.2 36.2 72 36.5 74.1 35.8C77.7 34.6 76.9 30.3 76.9 27.2C76.8 23.6 77.1 20.6 72.9 19.8C72 19.6 71.1 19.5 70.2 19.5C70.1 16.1 70.1 12.5 66.5 11.5C63.6 10.7 60.3 10.7 57.1 10.7C57.2 9.59999 57.1 8.29999 56.6 7.39999C55.7 6.29999 54 6.49999 52.8 6.59999ZM54.4 94.6C53.5 94.7 52.5 94.6 51.6 94.6C51 94.6 50.5 94.6 49.9 94.6C49.8 94.6 49.1 94.5 49 94.7C48.9 94.2 48.9 93.8 49 93.3C49 93 49 92.6 49 92.3C50.8 92.3 52.6 92.4 54.5 92.4C54.6 93.2 54.5 93.9 54.4 94.6ZM64.7 89.6C63.2 90 61.3 89.8 59.7 89.9C55.4 90.1 51 90.2 46.7 90.2C44.1 90.2 41.1 90.5 38.6 89.9C35.7 89.2 36 86.4 36 83.6C40.8 83.7 45.7 83.2 50.4 83.3C56.2 83.4 62.3 83.7 68.3 83.5C68.1 86.7 68.3 88.7 64.7 89.6ZM70.5 68.9C72.7 69 74.3 68.8 74.9 71.2C75.2 72.5 74.9 74.5 74.9 75.8C74.9 78.3 73.8 80.7 71.2 81.4C69.3 81.9 66.5 81.3 64.5 81.4C59.8 81.4 55.1 81.5 50.4 81.4C47.3 81.3 44.2 81.4 41.1 81.5C38.6 81.5 36.2 81.3 33.7 81.4C29.7 81.4 28.7 78.7 28.7 75C28.7 73.2 29.6 70.9 31.2 69.9C32.1 69.3 34.4 69.6 35.6 69.5C38 69.4 40.4 69.3 42.8 69.3C47.4 69.2 52 69.1 56.6 69C61.2 68.7 65.9 68.6 70.5 68.9ZM54.5 66.8C52.7 66.8 50.9 66.8 49.1 66.9C48.9 62.3 48.9 57.6 48.8 53C48.7 47.6 49.4 41.9 48.9 36.5C50.7 36.5 52.5 36.5 54.3 36.6C54.9 46.5 54.4 56.7 54.5 66.8ZM40.7 21.8C43.8 21.9 46.9 21.9 50 21.9C54.4 21.8 58.8 21.9 63.2 21.9C68.1 22 74.4 20.5 74.5 27.4C74.5 28.6 74.9 30.7 74.5 31.8C73.1 34.9 70.7 34.3 68.2 34.4C63.9 34.5 59.5 34.5 55.2 34.4C50.7 34.3 46.2 34.2 41.6 34.1C36.7 33.9 28.3 35.4 28.4 28.4C28.4 24.2 29.8 22.6 34.2 21.9C36.3 21.5 38.6 21.8 40.7 21.8ZM60 13.3C61.4 13.3 63.2 13.2 64.6 13.6C68 14.5 67.9 16.6 67.9 19.7C65.7 19.7 63.5 19.9 61.5 19.9C57.7 19.8 53.9 19.8 50.1 19.9C45.3 20 40.5 19.6 35.7 19.8C35.7 18.5 35.7 17.2 36 16C36.6 13.7 36.9 13.7 39.4 13.4C42.6 13.1 46 13.3 49.2 13.3C52.8 13.2 56.4 13.2 60 13.3ZM54.7 11C52.8 11.1 50.9 11.2 49.2 11.2C49.1 11.2 49 11.2 48.9 11.2C48.9 10.7 48.9 10.3 48.9 9.79999C48.9 9.09999 48.8 9.09999 49.3 8.89999C49.7 8.69999 50.5 8.89999 50.9 8.89999C51.5 8.89999 52.1 8.79999 52.7 8.69999C53.2 8.69999 53.6 8.59999 54.1 8.59999C54.3 8.59999 54.4 8.59999 54.6 8.59999C54.6 8.69999 54.6 8.69999 54.7 8.79999C54.6 9.59999 54.7 10.3 54.7 11Z" fill="#102649"/>
<path d="M33.6 79.1C35.9 80.1 38.9 79.8 41.3 79.5C42.6 79.3 42.6 77.3 41.3 77.4C39 77.7 36.3 78 34.1 77.1C32.9 76.6 32.4 78.6 33.6 79.1Z" fill="#102649"/>
<path d="M30.6 76.3C30.6 77.6 32.6 77.6 32.6 76.3C32.6 75 30.6 75 30.6 76.3Z" fill="#102649"/>
<path d="M32.6 31.6C33.6 32.3 35.1 32.4 36.2 32.5C37.7 32.7 39.1 32.7 40.6 32.6C41.9 32.5 41.9 30.4 40.6 30.6C39.4 30.7 38.1 30.7 36.9 30.5C35.9 30.4 34.4 30.4 33.6 29.8C32.6 29 31.6 30.8 32.6 31.6Z" fill="#102649"/>
<path d="M30 28.7C30 30 32 30 32 28.7C32 27.4 30 27.3 30 28.7Z" fill="#102649"/>
</g>
<defs>
<clipPath id="clip0_40_865">
<rect width="103.4" height="103.4" fill="white"/>
</clipPath>
</defs>
</svg>
