<svg xmlns="http://www.w3.org/2000/svg" width="1200" height="800" viewBox="0 0 1200 800" fill="none">
  <rect width="1200" height="800" rx="32" fill="#F7F8FD"/>
  <rect x="60" y="110" width="280" height="30" rx="15" fill="#6766F5" fill-opacity=".18"/>
  <rect x="60" y="165" width="360" height="120" rx="20" fill="#11162A"/>
  <rect x="60" y="315" width="280" height="28" rx="14" fill="#6766F5"/>
  <rect x="60" y="370" width="250" height="24" rx="12" fill="#9FA6C5"/>
  <rect x="60" y="406" width="210" height="24" rx="12" fill="#C2C7DD"/>
  <rect x="430" y="70" width="620" height="430" rx="28" fill="#232841"/>
  <rect x="455" y="95" width="570" height="380" rx="18" fill="white"/>
  <rect x="470" y="110" width="82" height="350" rx="14" fill="#FBFBFF"/>
  <rect x="575" y="128" width="210" height="18" rx="9" fill="#EEF0F8"/>
  <rect x="900" y="120" width="100" height="34" rx="10" fill="#6766F5"/>
  <rect x="575" y="180" width="116" height="90" rx="16" fill="#F4F5FF"/>
  <rect x="705" y="180" width="116" height="90" rx="16" fill="#F4F5FF"/>
  <rect x="835" y="180" width="116" height="90" rx="16" fill="#F4F5FF"/>
  <rect x="575" y="290" width="250" height="150" rx="18" fill="#FBFBFF" stroke="#E4E6F7"/>
  <rect x="845" y="290" width="140" height="150" rx="18" fill="#FBFBFF" stroke="#E4E6F7"/>
  <rect x="930" y="120" width="190" height="350" rx="34" fill="#0F1226"/>
  <rect x="944" y="134" width="162" height="322" rx="24" fill="white"/>
  <rect x="964" y="205" width="122" height="70" rx="16" fill="url(#g)"/>
  <rect x="964" y="290" width="122" height="52" rx="16" fill="#F6F7FF"/>
  <rect x="964" y="352" width="122" height="52" rx="16" fill="#F6F7FF"/>
  <defs>
    <linearGradient id="g" x1="964" y1="205" x2="1086" y2="275" gradientUnits="userSpaceOnUse">
      <stop stop-color="#6766F5"/>
      <stop offset="1" stop-color="#8E7BFF"/>
    </linearGradient>
  </defs>
</svg>
