<svg width="234" height="184" viewBox="0 0 234 184" fill="none" xmlns="http://www.w3.org/2000/svg">
<path d="M221.707 157.838C158.98 152.514 96.1422 153.06 33.2627 153.778C-4.69246 154.557 -12.538 129.702 22.1238 111.928C51.7376 96.5495 87.1853 94.3328 115.52 76.2389C145.664 42.998 70.148 28.9652 50.0879 18.3143C37.0047 22.1832 28.7301 -0.785499 45.671 0.0207601C72.7587 10.4595 103.405 17.499 126.196 36.1282C143.507 50.7973 143.107 78.9274 122.937 90.8277C90.6859 112.055 46.9637 110.25 17.1519 135.364C41.5611 140.476 66.9373 136.477 91.6959 136.904C135.503 136.773 179.175 138.487 222.851 141.71C233.25 142.311 232.167 158.629 221.707 157.838Z" fill="white"/>
<path d="M193.135 180.671C184.501 168.418 211.642 156.629 216.817 146.368C206.991 138.005 186.795 132.692 184.305 119.42C184.612 114.084 190.098 110.8 195.025 112.353C206.586 122.012 221.741 127.995 232.226 138.845C238.375 150.087 226.478 160.248 219.154 167.413C211.527 172.483 203.238 189.819 193.135 180.671Z" fill="white"/>
</svg>
