<svg width="661" height="407" viewBox="0 0 661 407" fill="none" xmlns="http://www.w3.org/2000/svg">
<path d="M333.896 405.765C280.431 399.33 273.125 338.697 281.951 295.472C303.114 190.447 344.457 10.362 175.914 128.621C135.335 156.923 102.007 194.934 59.4036 220.304C-20.5066 259.101 -0.14705 150.778 10.0803 106.994C17.116 81.646 26.3851 14.6386 46.6849 0.869972C59.9455 -4.94459 66.1775 20.3172 51.1439 19.6156C40.8642 45.508 -8.15103 207.398 30.296 212.382C75.1632 204.492 114.74 151.325 152.685 125.825C191.134 98.6564 248.054 52.0007 294.747 85.3695C378.958 150.39 208.28 409.821 364.056 388.391C466.755 352.91 547.183 196.786 597.46 105.109C607.082 86.5593 616.483 67.9151 625.638 49.1378C630.243 39.9579 645.017 47.5097 639.873 56.7964C589.404 155.766 462.737 418.841 333.896 405.765Z" fill="white"/>
<path d="M645.885 88.598C639.045 78.3941 637.098 65.9508 631.397 55.2787C620.036 57.6261 609.773 63.8798 599.49 69.0657C592.831 73.4159 581.708 80.4875 578.49 68.643C576.296 58.624 593.126 55.5117 599.661 50.7012C611.895 45.7283 626.248 34.6716 639.634 41.1981C651.82 50.2381 651.147 68.0527 659.547 79.9545C665.164 88.7659 651.397 97.518 645.885 88.598Z" fill="white"/>
</svg>
