<svg xmlns="http://www.w3.org/2000/svg" viewBox="0 0 1200 760" role="img" aria-label="CareLink project preview">
  <rect width="1200" height="760" fill="#f7fbfb"/>
  <circle cx="910" cy="160" r="220" fill="#e8fbf8"/>
  <circle cx="212" cy="630" r="180" fill="#eaf4ff"/>
  <rect x="102" y="112" width="300" height="536" rx="42" fill="#fff" stroke="#dbe6ea" stroke-width="4"/>
  <rect x="136" y="154" width="92" height="12" rx="6" fill="#00a99d"/>
  <rect x="136" y="204" width="208" height="120" rx="26" fill="#e8fbf8"/>
  <rect x="136" y="356" width="230" height="44" rx="18" fill="#eef3f4"/>
  <rect x="136" y="420" width="188" height="44" rx="18" fill="#eef3f4"/>
  <rect x="136" y="510" width="156" height="54" rx="27" fill="#00a99d"/>
  <rect x="450" y="76" width="300" height="600" rx="42" fill="#00a99d"/>
  <rect x="492" y="132" width="112" height="14" rx="7" fill="#fff" opacity=".9"/>
  <rect x="492" y="194" width="204" height="156" rx="28" fill="#fff" opacity=".24"/>
  <rect x="492" y="382" width="214" height="46" rx="18" fill="#fff" opacity=".9"/>
  <rect x="492" y="450" width="178" height="46" rx="18" fill="#fff" opacity=".6"/>
  <rect x="804" y="128" width="300" height="520" rx="42" fill="#fff" stroke="#dbe6ea" stroke-width="4"/>
  <rect x="842" y="176" width="112" height="12" rx="6" fill="#0876d8"/>
  <path d="M848 382c48-76 98 26 148-48s86 18 126-48" fill="none" stroke="#00a99d" stroke-width="12" stroke-linecap="round"/>
  <rect x="842" y="456" width="212" height="42" rx="18" fill="#eef3f4"/>
  <rect x="842" y="520" width="156" height="52" rx="26" fill="#0876d8"/>
</svg>
