<svg width="142" height="20" viewBox="0 0 142 20" fill="none" xmlns="http://www.w3.org/2000/svg">
<path d="M0.000161362 18.8157L3.36016 18.8181L3.37234 2.0661L0.0123426 2.06365L0.000161362 18.8157ZM6.67985 18.8205L10.0398 18.823L10.0528 1.06296L6.69276 1.06051L6.67985 18.8205ZM13.3595 18.8254L16.7195 18.8278L16.7324 1.06781L13.3724 1.06537L13.3595 18.8254ZM32.6009 5.54335L29.2169 5.54089L29.2116 12.8609C29.21 14.9969 28.0572 16.1481 26.2332 16.1467C24.4572 16.1454 23.282 14.9926 23.2836 12.8566L23.2889 5.53658L19.9289 5.53414L19.9232 13.3341C19.9206 16.9821 22.1511 18.9998 25.2471 19.002C26.9031 19.0032 28.3676 18.2843 29.2084 17.1569L29.2072 18.8369L32.5912 18.8393L32.6009 5.54335ZM46.2292 15.0573C46.1367 10.1852 38.7676 11.6918 38.7694 9.26784C38.7699 8.49984 39.4183 7.99631 40.6663 7.99722C41.9863 7.99818 42.8018 8.69477 42.897 9.72684L46.113 9.72918C45.923 7.08904 43.9802 5.33563 40.7642 5.33329C37.4762 5.3309 35.5069 7.10547 35.5053 9.31347C35.5018 14.1855 43.0149 12.6789 43.0132 15.0549C43.0126 15.8229 42.2922 16.4224 40.9722 16.4214C39.6282 16.4205 38.6927 15.6518 38.5735 14.6437L35.1895 14.6412C35.3317 17.1133 37.6582 19.059 40.9942 19.0615C44.2342 19.0638 46.2275 17.3373 46.2292 15.0573ZM49.5155 14.7237C49.5133 17.7717 51.2165 18.8529 53.7605 18.8547L55.8725 18.8563L55.8746 16.0243L54.3146 16.0231C53.2586 16.0224 52.8989 15.6381 52.8995 14.7501L52.9042 8.31812L55.8802 8.32028L55.8822 5.56028L52.9062 5.55812L52.9086 2.27012L49.5246 2.26766L49.5222 5.55566L47.9382 5.55451L47.9362 8.3145L49.5202 8.31566L49.5155 14.7237ZM61.654 12.2365C61.6559 9.66848 62.8565 8.90135 64.8485 8.9028L65.7365 8.90345L65.739 5.37545C63.891 5.3741 62.4984 6.26109 61.6574 7.62848L61.6589 5.56448L58.2989 5.56204L58.2892 18.858L61.6492 18.8605L61.654 12.2365ZM67.1332 12.1685C67.1302 16.3205 69.8162 19.0824 73.1762 19.0849C75.2882 19.0864 76.8009 18.0795 77.5937 16.9281L77.5923 18.8721L80.9763 18.8745L80.986 5.57854L77.602 5.57608L77.6006 7.47207C76.8094 6.3675 75.3462 5.35843 73.2102 5.35688C69.8262 5.35442 67.1362 8.01647 67.1332 12.1685ZM77.5972 12.2241C77.5953 14.7441 75.9143 16.1349 74.0663 16.1335C72.2663 16.1322 70.5634 14.691 70.5652 12.171C70.567 9.65096 72.272 8.3082 74.072 8.30951C75.92 8.31085 77.599 9.70407 77.5972 12.2241ZM84.789 14.7493C84.7867 17.7973 86.49 18.8785 89.034 18.8804L91.146 18.8819L91.148 16.0499L89.588 16.0488C88.532 16.048 88.1723 15.6638 88.1729 14.7758L88.1776 8.34377L91.1536 8.34593L91.1556 5.58593L88.1796 5.58377L88.182 2.29577L84.798 2.29331L84.7956 5.58131L83.2116 5.58015L83.2096 8.34015L84.7936 8.34131L84.789 14.7493ZM93.5626 18.8837L96.9226 18.8861L96.9323 5.59013L93.5723 5.58769L93.5626 18.8837ZM95.2775 4.00493C96.4535 4.00578 97.3421 3.14243 97.3429 2.03843C97.3437 0.934429 96.4563 0.0697832 95.2803 0.0689281C94.0803 0.0680555 93.2157 0.931427 93.2149 2.03543C93.2141 3.13943 94.0775 4.00406 95.2775 4.00493ZM113.087 12.2499C113.09 8.04988 110.092 5.3837 106.252 5.38091C102.412 5.37812 99.4102 8.03993 99.4072 12.2399C99.4041 16.4159 102.306 19.106 106.146 19.1088C110.01 19.1116 113.084 16.4259 113.087 12.2499ZM102.815 12.2424C102.817 9.57841 104.426 8.30758 106.202 8.30887C107.978 8.31016 109.633 9.58337 109.631 12.2474C109.629 14.8874 107.924 16.1821 106.148 16.1808C104.348 16.1795 102.813 14.8824 102.815 12.2424ZM124.859 18.9064L128.219 18.9089L128.225 11.1089C128.227 7.43689 126.021 5.41928 122.925 5.41703C121.221 5.41579 119.78 6.13475 118.915 7.26212L118.917 5.60612L115.557 5.60367L115.547 18.8997L118.907 18.9021L118.912 11.5581C118.914 9.42212 120.091 8.27097 121.915 8.2723C123.691 8.27359 124.866 9.42644 124.864 11.5624L124.859 18.9064ZM141.737 15.1267C141.644 10.2546 134.275 11.7613 134.277 9.33729C134.278 8.56929 134.926 8.06576 136.174 8.06667C137.494 8.06763 138.31 8.76422 138.405 9.79629L141.621 9.79863C141.431 7.15849 139.488 5.40508 136.272 5.40274C132.984 5.40035 131.015 7.17491 131.013 9.38291C131.01 14.2549 138.523 12.7484 138.521 15.1244C138.52 15.8924 137.8 16.4919 136.48 16.4909C135.136 16.4899 134.201 15.7212 134.081 14.7131L130.697 14.7107C130.839 17.1828 133.166 19.1285 136.502 19.1309C139.742 19.1333 141.735 17.4067 141.737 15.1267Z" fill="#02264A"/>
</svg>
